<svg width="24" height="25" viewBox="0 0 24 25" fill="none" xmlns="http://www.w3.org/2000/svg">
<path d="M4.26056 10.647C3.98551 12.7526 3.82161 14.8712 3.76956 16.994C6.64835 18.1965 9.40472 19.6733 12.0006 21.404C14.5967 19.6733 17.3534 18.1965 20.2326 16.994C20.1805 14.8712 20.0166 12.7526 19.7416 10.647M4.25956 10.647C3.38118 10.3517 2.49484 10.0806 1.60156 9.83398C4.86496 7.54589 8.34855 5.5892 12.0006 3.99298C15.6525 5.58886 19.1361 7.54522 22.3996 9.83298C21.5036 10.081 20.6166 10.353 19.7416 10.647M4.25956 10.647C6.92822 11.5441 9.5175 12.662 12.0006 13.989C14.4833 12.662 17.0723 11.5442 19.7406 10.647M6.75056 15.5V11.825C8.4473 10.7703 10.1999 9.80825 12.0006 8.94298M4.99356 20.493C5.55153 19.9364 5.994 19.275 6.29553 18.5468C6.59705 17.8187 6.75169 17.0381 6.75056 16.25V14.75M6.75056 15.5C6.94948 15.5 7.14024 15.421 7.28089 15.2803C7.42155 15.1397 7.50056 14.9489 7.50056 14.75C7.50056 14.5511 7.42155 14.3603 7.28089 14.2197C7.14024 14.079 6.94948 14 6.75056 14C6.55165 14 6.36088 14.079 6.22023 14.2197C6.07958 14.3603 6.00056 14.5511 6.00056 14.75C6.00056 14.9489 6.07958 15.1397 6.22023 15.2803C6.36088 15.421 6.55165 15.5 6.75056 15.5Z" stroke="#2A3843" stroke-linecap="round" stroke-linejoin="round"/>
</svg>
