<svg width="24" height="25" viewBox="0 0 24 25" fill="none" xmlns="http://www.w3.org/2000/svg">
<path d="M4.25959 10.647C3.98453 12.7526 3.82064 14.8712 3.76859 16.994C6.64737 18.1965 9.40374 19.6733 11.9996 21.404C14.5957 19.6733 17.3525 18.1965 20.2316 16.994C20.1795 14.8712 20.0156 12.7526 19.7406 10.647M4.25859 10.647C3.3802 10.3517 2.49387 10.0806 1.60059 9.83398C4.86398 7.54589 8.34758 5.5892 11.9996 3.99298C15.6516 5.58886 19.1352 7.54522 22.3986 9.83298C21.5026 10.081 20.6156 10.353 19.7406 10.647M4.25859 10.647C6.92724 11.5441 9.51653 12.662 11.9996 13.989C14.4823 12.662 17.0713 11.5442 19.7396 10.647M6.74959 15.5V11.825C8.44632 10.7703 10.1989 9.80825 11.9996 8.94298M4.99259 20.493C5.55056 19.9364 5.99302 19.275 6.29455 18.5468C6.59608 17.8187 6.75072 17.0381 6.74959 16.25V14.75M6.74959 15.5C6.9485 15.5 7.13926 15.421 7.27992 15.2803C7.42057 15.1397 7.49959 14.9489 7.49959 14.75C7.49959 14.5511 7.42057 14.3603 7.27992 14.2197C7.13926 14.079 6.9485 14 6.74959 14C6.55067 14 6.35991 14.079 6.21926 14.2197C6.0786 14.3603 5.99959 14.5511 5.99959 14.75C5.99959 14.9489 6.0786 15.1397 6.21926 15.2803C6.35991 15.421 6.55067 15.5 6.74959 15.5Z" stroke="#487792" stroke-linecap="round" stroke-linejoin="round"/>
</svg>
