<svg width="20" height="21" viewBox="0 0 20 21" fill="none" xmlns="http://www.w3.org/2000/svg">
<path d="M10 6.45285V4.95285M10 6.45285C8.645 6.45285 7.303 6.50885 5.976 6.61885C4.845 6.71285 4 7.67585 4 8.81085V11.3239M10 6.45385C11.355 6.45385 12.697 6.50885 14.024 6.61885C15.155 6.71285 16 7.67585 16 8.81085V11.3239M13 6.45385V4.95385M7 6.45385V4.95385M19 14.7039L17.5 15.4539C17.0343 15.6867 16.5207 15.808 16 15.808C15.4793 15.808 14.9657 15.6867 14.5 15.4539C14.0343 15.221 13.5207 15.0997 13 15.0997C12.4793 15.0997 11.9657 15.221 11.5 15.4539C11.0343 15.6867 10.5207 15.808 10 15.808C9.47929 15.808 8.96573 15.6867 8.5 15.4539C8.03427 15.221 7.52071 15.0997 7 15.0997C6.47929 15.0997 5.96573 15.221 5.5 15.4539C5.03427 15.6867 4.52071 15.808 4 15.808C3.47929 15.808 2.96573 15.6867 2.5 15.4539L1 14.7029M16 11.3229C14.0096 11.0755 12.0057 10.9519 10 10.9529C7.968 10.9529 5.966 11.0779 4 11.3229M16 11.3229C16.39 11.3719 16.777 11.4249 17.163 11.4829C18.233 11.6429 19 12.5769 19 13.6579V18.8279C19 19.4479 18.496 19.9519 17.875 19.9519H2.125C1.8268 19.9519 1.54081 19.8335 1.32986 19.6227C1.11891 19.4119 1.00027 19.126 1 18.8279V13.6579C1 12.5779 1.768 11.6439 2.837 11.4839C3.22399 11.4254 3.61169 11.3718 4 11.3229M10.265 1.31285C10.3175 1.36528 10.3533 1.4321 10.3678 1.50485C10.3823 1.57761 10.3749 1.65303 10.3465 1.72158C10.3181 1.79013 10.2701 1.84872 10.2084 1.88995C10.1467 1.93118 10.0742 1.95318 10 1.95318C9.92581 1.95318 9.85329 1.93118 9.79161 1.88995C9.72993 1.84872 9.68187 1.79013 9.6535 1.72158C9.62513 1.65303 9.61773 1.57761 9.63224 1.50485C9.64675 1.4321 9.68251 1.36528 9.735 1.31285L10 1.04785L10.265 1.31285V1.31285ZM7.265 1.31285C7.31749 1.36528 7.35325 1.4321 7.36776 1.50485C7.38227 1.57761 7.37487 1.65303 7.3465 1.72158C7.31813 1.79013 7.27007 1.84872 7.20839 1.88995C7.14671 1.93118 7.07419 1.95318 7 1.95318C6.92581 1.95318 6.85329 1.93118 6.79161 1.88995C6.72993 1.84872 6.68187 1.79013 6.6535 1.72158C6.62513 1.65303 6.61773 1.57761 6.63224 1.50485C6.64675 1.4321 6.68251 1.36528 6.735 1.31285L7 1.04785L7.265 1.31285V1.31285ZM13.265 1.31285C13.3175 1.36528 13.3533 1.4321 13.3678 1.50485C13.3823 1.57761 13.3749 1.65303 13.3465 1.72158C13.3181 1.79013 13.2701 1.84872 13.2084 1.88995C13.1467 1.93118 13.0742 1.95318 13 1.95318C12.9258 1.95318 12.8533 1.93118 12.7916 1.88995C12.7299 1.84872 12.6819 1.79013 12.6535 1.72158C12.6251 1.65303 12.6177 1.57761 12.6322 1.50485C12.6467 1.4321 12.6825 1.36528 12.735 1.31285L13 1.04785L13.265 1.31285V1.31285Z" stroke="#11322A" stroke-linecap="round" stroke-linejoin="round"/>
</svg>
