<svg width="24" height="24" viewBox="0 0 24 24" fill="none" xmlns="http://www.w3.org/2000/svg">
<path d="M16.2397 22C15.9745 22 15.7202 21.8947 15.5326 21.7071C15.3451 21.5196 15.2397 21.2652 15.2397 21V18.4C15.2708 18.101 15.2388 17.7987 15.1458 17.5128C15.0528 17.2268 14.9008 16.9636 14.6997 16.74C14.5752 16.605 14.4903 16.4383 14.4543 16.2582C14.4183 16.0781 14.4326 15.8916 14.4956 15.7191C14.5586 15.5465 14.6679 15.3947 14.8116 15.2802C14.9552 15.1657 15.1275 15.093 15.3097 15.07C17.7497 14.78 19.9997 14 19.9997 9.77003C20.0005 8.9801 19.7674 8.20764 19.3297 7.55002C18.9259 6.94465 18.7785 6.20389 18.9197 5.49002C19.0099 5.02435 19.0099 4.5457 18.9197 4.08002C18.171 4.3332 17.4659 4.7009 16.8297 5.17002C16.7095 5.25544 16.5718 5.31318 16.4265 5.33912C16.2813 5.36505 16.1322 5.35853 15.9897 5.32002C14.1851 4.81008 12.2744 4.81008 10.4697 5.32002C10.3273 5.35853 10.1782 5.36505 10.0329 5.33912C9.88772 5.31318 9.75003 5.25544 9.62975 5.17002C8.98968 4.69546 8.27718 4.32739 7.51975 4.08002C7.42465 4.54521 7.42465 5.02483 7.51975 5.49002C7.65083 6.21288 7.49671 6.9584 7.08975 7.57002C6.65401 8.23225 6.42114 9.00731 6.41975 9.80002C6.41975 13.69 8.29975 14.73 11.1197 15.09C11.3043 15.1129 11.4788 15.1868 11.6236 15.3034C11.7685 15.42 11.8779 15.5747 11.9397 15.75C11.9979 15.9202 12.0091 16.1029 11.9721 16.2789C11.9352 16.4549 11.8514 16.6176 11.7297 16.75C11.5352 16.9579 11.386 17.2039 11.2913 17.4724C11.1966 17.7409 11.1586 18.0261 11.1797 18.31V21C11.1797 21.2652 11.0744 21.5196 10.8869 21.7071C10.6993 21.8947 10.445 22 10.1797 22C9.91453 22 9.66017 21.8947 9.47264 21.7071C9.2851 21.5196 9.17975 21.2652 9.17975 21V20.43C8.19711 20.543 7.20178 20.4114 6.28233 20.0467C5.36288 19.6821 4.54784 19.0958 3.90975 18.34C3.58175 17.9765 3.18823 17.6779 2.74975 17.46C2.62236 17.4272 2.50269 17.3696 2.39757 17.2905C2.29245 17.2114 2.20393 17.1124 2.13708 16.9991C2.07022 16.8859 2.02633 16.7605 2.00791 16.6303C1.9895 16.5 1.99692 16.3674 2.02975 16.24C2.06258 16.1126 2.12017 15.993 2.19925 15.8879C2.27833 15.7827 2.37734 15.6942 2.49063 15.6274C2.60392 15.5605 2.72926 15.5166 2.85951 15.4982C2.98976 15.4798 3.12236 15.4872 3.24975 15.52C4.019 15.8003 4.70635 16.2677 5.24975 16.88C6.24975 17.88 7.24975 18.76 9.14974 18.4C9.11634 17.8631 9.19466 17.3251 9.37975 16.82C7.31975 16.3 4.37975 14.82 4.37975 9.82002C4.37711 8.63566 4.72506 7.477 5.37975 6.49002C5.50135 6.30783 5.54792 6.08572 5.50975 5.87002C5.30767 4.7906 5.42228 3.67576 5.83975 2.66002C5.89647 2.52459 5.98232 2.40331 6.0912 2.30479C6.20009 2.20628 6.32933 2.13295 6.46975 2.09002C6.80975 1.99002 8.02975 1.79002 10.3397 3.29002C12.2097 2.84003 14.1598 2.84003 16.0297 3.29002C18.3397 1.79002 19.5597 1.98002 19.8897 2.09002C20.0302 2.13295 20.1594 2.20628 20.2683 2.30479C20.3772 2.40331 20.463 2.52459 20.5197 2.66002C20.938 3.67906 21.0526 4.79733 20.8497 5.88002C20.8293 5.97758 20.8285 6.07823 20.8474 6.1761C20.8662 6.27397 20.9045 6.36709 20.9597 6.45002C21.6163 7.43983 21.9644 8.60225 21.9597 9.79002C21.9597 14.86 19.0397 16.33 16.9597 16.79C17.143 17.3266 17.2178 17.8943 17.1797 18.46V21C17.1802 21.2552 17.0831 21.5008 16.9084 21.6867C16.7336 21.8726 16.4944 21.9847 16.2397 22V22Z" fill="#1A7076"/>
</svg>
