<svg width="24" height="25" viewBox="0 0 24 25" fill="none" xmlns="http://www.w3.org/2000/svg">
<path d="M15.751 6.5C15.751 7.49456 15.3559 8.44839 14.6526 9.15165C13.9493 9.85491 12.9955 10.25 12.001 10.25C11.0064 10.25 10.0526 9.85491 9.3493 9.15165C8.64604 8.44839 8.25095 7.49456 8.25095 6.5C8.25095 5.50544 8.64604 4.55161 9.3493 3.84835C10.0526 3.14509 11.0064 2.75 12.001 2.75C12.9955 2.75 13.9493 3.14509 14.6526 3.84835C15.3559 4.55161 15.751 5.50544 15.751 6.5V6.5ZM4.50195 20.618C4.53409 18.6504 5.33829 16.7742 6.74113 15.394C8.14397 14.0139 10.033 13.2405 12.001 13.2405C13.9689 13.2405 15.8579 14.0139 17.2608 15.394C18.6636 16.7742 19.4678 18.6504 19.5 20.618C17.1473 21.6968 14.5891 22.2535 12.001 22.25C9.32495 22.25 6.78495 21.666 4.50195 20.618Z" stroke="#2A3843" stroke-linecap="round" stroke-linejoin="round"/>
</svg>
