<svg width="651" height="540" viewBox="0 0 651 540" fill="none" xmlns="http://www.w3.org/2000/svg">
<g clip-path="url(#clip0_90_22)">
<rect y="83" width="651" height="416" rx="20" fill="white"/>
<rect y="83" width="651" height="416" fill="white"/>
<rect y="83" width="142" height="416" fill="#445664"/>
<rect x="63" y="456" width="49" height="6" fill="white"/>
<rect x="15" y="136" width="55" height="4" fill="#F3F3F3"/>
<rect x="15" y="149" width="61" height="4" fill="#F3F3F3"/>
<rect x="15" y="161" width="53" height="4" fill="#F3F3F3"/>
<rect x="15" y="174" width="56" height="4" fill="#F3F3F3"/>
<rect x="15" y="187" width="67" height="4" fill="#F3F3F3"/>
<rect x="15" y="200" width="49" height="4" fill="#F3F3F3"/>
<rect x="15" y="213" width="61" height="4" fill="#F3F3F3"/>
<rect x="15" y="226" width="61" height="4" fill="#F3F3F3"/>
<rect x="15" y="239" width="61" height="4" fill="#F3F3F3"/>
<rect x="15" y="279" width="61" height="4" fill="#F3F3F3"/>
<rect x="15" y="292" width="61" height="4" fill="#F3F3F3"/>
<rect x="15" y="305" width="61" height="4" fill="#F3F3F3"/>
<rect x="15" y="318" width="61" height="4" fill="#F3F3F3"/>
<rect x="15" y="331" width="61" height="4" fill="#F3F3F3"/>
<rect x="15" y="344" width="61" height="4" fill="#F3F3F3"/>
<rect x="15" y="120" width="106" height="6" fill="white"/>
<rect x="15" y="357" width="61" height="4" fill="#F3F3F3"/>
<rect x="63" y="469" width="61" height="4" fill="#F3F3F3"/>
<rect x="15" y="264" width="106" height="6" fill="white"/>
<circle cx="31" cy="464" r="16" fill="#BF6F68"/>
</g>
<rect x="402.5" y="0.5" width="248" height="539" rx="31.5" fill="white"/>
<rect x="402.5" y="0.5" width="248" height="539" rx="31.5" stroke="#F6F6F6"/>
<defs>
<clipPath id="clip0_90_22">
<rect y="83" width="651" height="416" rx="20" fill="white"/>
</clipPath>
</defs>
</svg>
