<svg width="278" height="471" viewBox="0 0 278 471" fill="none" xmlns="http://www.w3.org/2000/svg">
<g clip-path="url(#clip0_16_68)">
<mask id="path-1-inside-1_16_68" fill="white">
<path d="M0 0H278V439C278 456.673 263.673 471 246 471H32C14.3269 471 0 456.673 0 439V0Z"/>
</mask>
<path d="M0 0H278V439C278 456.673 263.673 471 246 471H32C14.3269 471 0 456.673 0 439V0Z" fill="white"/>
<rect x="0.5" y="395.5" width="277" height="75" fill="#CEDCDD" stroke="#11474A"/>
<rect x="24.25" y="137.25" width="182.5" height="13.5" rx="3.75" fill="#CEDCDD" stroke="#11474A" stroke-width="0.5"/>
<rect x="24.5" y="-8.5" width="67.6571" height="53" rx="5.5" stroke="#11474A"/>
<rect x="105.157" y="-8.5" width="67.6571" height="53" rx="5.5" stroke="#11474A"/>
<rect x="186.814" y="-8.5" width="67.6571" height="53" rx="5.5" stroke="#11474A"/>
<rect x="240.5" y="367.5" width="13" height="13" rx="1.5" fill="#CEDCDD" stroke="#98A5A6"/>
<rect x="40" y="419" width="24" height="24" rx="2" fill="white"/>
<rect x="98" y="419" width="24" height="24" rx="2" fill="#98A5A6"/>
<rect x="156" y="419" width="24" height="24" rx="2" fill="white"/>
<rect x="214" y="419" width="24" height="24" rx="2" fill="white"/>
<rect x="24.5" y="170.5" width="103" height="91" rx="5.5" stroke="#11474A"/>
<rect x="150.5" y="170.5" width="103" height="91" rx="5.5" stroke="#11474A"/>
<rect x="24" y="54" width="48" height="4.5" rx="2" fill="#EDEDED"/>
<rect x="105" y="54" width="61" height="4" rx="2" fill="#EDEDED"/>
<rect x="186" y="54" width="32" height="4" rx="2" fill="#EDEDED"/>
<rect x="24" y="273" width="89" height="10" rx="2" fill="#EDEDED"/>
<rect x="146" y="370" width="63" height="6" rx="2" fill="#EDEDED"/>
<rect x="1.5" y="345.5" width="277" height="7" stroke="#11474A"/>
<rect x="161" y="346" width="116" height="6" fill="#CEDCDD"/>
<rect x="150" y="273" width="62" height="10" rx="2" fill="#EDEDED"/>
<rect x="24" y="62" width="57" height="5" rx="2" fill="#98A5A6"/>
<rect x="105" y="62" width="56" height="5" rx="2" fill="#98A5A6"/>
<rect x="186" y="62" width="45" height="5" rx="2" fill="#98A5A6"/>
<rect x="24" y="291" width="64" height="10" rx="2" fill="#98A5A6"/>
<rect x="76" y="370" width="54" height="6" rx="2" fill="#98A5A6"/>
<rect x="150" y="291" width="106" height="10" rx="2" fill="#98A5A6"/>
<circle cx="33" cy="374" r="8.5" fill="#CEDCDD" stroke="#98A5A6"/>
</g>
<path d="M0 0H278H0ZM279 439C279 457.225 264.225 472 246 472H32C13.7746 472 -1 457.225 -1 439H1C1 456.121 14.8792 470 32 470H246C263.121 470 277 456.121 277 439H279ZM32 472C13.7746 472 -1 457.225 -1 439V0H1V439C1 456.121 14.8792 470 32 470V472ZM279 0V439C279 457.225 264.225 472 246 472V470C263.121 470 277 456.121 277 439V0H279Z" fill="#11474A" mask="url(#path-1-inside-1_16_68)"/>
<defs>
<clipPath id="clip0_16_68">
<path d="M0 0H278V439C278 456.673 263.673 471 246 471H32C14.3269 471 0 456.673 0 439V0Z" fill="white"/>
</clipPath>
</defs>
</svg>
