<svg width="413" height="602" viewBox="0 0 413 602" fill="none" xmlns="http://www.w3.org/2000/svg">
<rect width="278" height="602" rx="32" fill="white"/>
<rect y="524" width="278" height="78" fill="#AEC0C1"/>
<rect x="24" y="99" width="81" height="11" rx="4" fill="#AEC0C1"/>
<rect x="24" y="268" width="183" height="14" rx="6" fill="#AEC0C1"/>
<rect x="24" y="122" width="68.6571" height="54" rx="6" fill="#CEDCDD"/>
<rect x="104.657" y="122" width="68.6571" height="54" rx="6" fill="#CEDCDD"/>
<rect x="186.314" y="122" width="68.6571" height="54" rx="6" fill="#CEDCDD"/>
<rect x="240" y="498" width="14" height="14" rx="2" fill="#CEDCDD"/>
<rect x="49" y="548" width="40" height="25" rx="4" fill="#CEDCDD"/>
<rect x="119" y="548" width="40" height="25" rx="4" fill="#CEDCDD"/>
<rect x="189" y="548" width="40" height="25" rx="4" fill="#CEDCDD"/>
<rect x="24" y="301" width="104" height="92" rx="6" fill="#CEDCDD"/>
<rect x="150" y="301" width="104" height="92" rx="6" fill="#CEDCDD"/>
<rect x="24" y="185" width="48" height="4.5" rx="2" fill="#EDEDED"/>
<rect x="105" y="185" width="61" height="4" rx="2" fill="#EDEDED"/>
<rect x="186" y="185" width="32" height="4" rx="2" fill="#EDEDED"/>
<rect x="24" y="404" width="89" height="10" rx="2" fill="#EDEDED"/>
<rect x="142" y="501" width="63" height="6" rx="2" fill="#EDEDED"/>
<rect x="2" y="477" width="276" height="8" fill="#EDEDED"/>
<rect x="161" y="477" width="116" height="8" fill="#AEC0C1"/>
<rect x="150" y="404" width="62" height="10" rx="2" fill="#EDEDED"/>
<rect x="24" y="193" width="57" height="5" rx="2" fill="#98A5A6"/>
<rect x="105" y="193" width="56" height="5" rx="2" fill="#98A5A6"/>
<rect x="186" y="193" width="45" height="5" rx="2" fill="#98A5A6"/>
<rect x="24" y="422" width="64" height="10" rx="2" fill="#98A5A6"/>
<rect x="72" y="501" width="54" height="6" rx="2" fill="#98A5A6"/>
<rect x="150" y="422" width="106" height="10" rx="2" fill="#98A5A6"/>
<circle cx="33" cy="504" r="9" fill="#CEDCDD"/>
<path d="M257.687 350H316.562C325.399 350 332.562 342.837 332.562 334V34C332.562 25.1635 339.726 18 348.562 18H407.438" stroke="#1A7076" stroke-width="1.5" stroke-linecap="round" stroke-dasharray="4 4"/>
<path d="M408.253 17.2803L403.221 14.1526C402.618 13.7778 401.841 14.1339 401.721 14.7806C401.7 14.8943 401.725 15.0102 401.765 15.119L402.803 18L401.765 20.8811C401.725 20.9899 401.7 21.1058 401.721 21.2195C401.84 21.8571 402.598 22.2148 403.201 21.8598L408.233 18.8966C408.854 18.5306 408.865 17.6608 408.253 17.2803Z" fill="#1A7076"/>
<path d="M253.5 350C253.5 348.619 254.619 347.5 256 347.5C257.381 347.5 258.5 348.619 258.5 350C258.5 351.381 257.381 352.5 256 352.5C254.619 352.5 253.5 351.381 253.5 350Z" fill="white" stroke="#1A7076" stroke-width="3"/>
</svg>
