<svg width="195" height="169" viewBox="0 0 195 169" fill="none" xmlns="http://www.w3.org/2000/svg">
<g filter="url(#filter0_d_108_47)">
<rect width="85" height="38" transform="translate(95.0566 112.66)" fill="#1A7076"/>
<path d="M119.092 122.206H121.717V134.581C121.717 135.7 121.495 136.657 121.052 137.453C120.615 138.248 119.998 138.856 119.203 139.277C118.407 139.691 117.475 139.899 116.407 139.899C115.424 139.899 114.541 139.72 113.757 139.362C112.978 139.004 112.362 138.484 111.907 137.802C111.458 137.115 111.234 136.279 111.234 135.296H113.85C113.85 135.779 113.961 136.197 114.183 136.549C114.41 136.902 114.72 137.177 115.112 137.376C115.51 137.569 115.964 137.666 116.475 137.666C117.032 137.666 117.504 137.549 117.89 137.316C118.282 137.078 118.581 136.728 118.785 136.268C118.99 135.808 119.092 135.245 119.092 134.581V122.206ZM133.878 134.231V126.569H136.435V139.66H133.929V137.393H133.793C133.492 138.092 133.009 138.674 132.344 139.14C131.685 139.6 130.864 139.831 129.881 139.831C129.04 139.831 128.296 139.646 127.648 139.277C127.006 138.902 126.5 138.348 126.131 137.615C125.767 136.882 125.585 135.975 125.585 134.896V126.569H128.134V134.589C128.134 135.481 128.381 136.191 128.875 136.72C129.37 137.248 130.012 137.512 130.801 137.512C131.279 137.512 131.753 137.393 132.225 137.154C132.702 136.916 133.097 136.555 133.409 136.072C133.728 135.589 133.884 134.975 133.878 134.231ZM142.647 122.206V139.66H140.099V122.206H142.647ZM146.315 139.66V126.569H148.864V139.66H146.315ZM147.602 124.549C147.159 124.549 146.779 124.402 146.46 124.106C146.148 123.805 145.992 123.447 145.992 123.032C145.992 122.612 146.148 122.254 146.46 121.958C146.779 121.657 147.159 121.507 147.602 121.507C148.046 121.507 148.423 121.657 148.736 121.958C149.054 122.254 149.213 122.612 149.213 123.032C149.213 123.447 149.054 123.805 148.736 124.106C148.423 124.402 148.046 124.549 147.602 124.549ZM156.342 139.95C155.512 139.95 154.762 139.796 154.092 139.49C153.421 139.177 152.89 138.725 152.498 138.135C152.112 137.544 151.918 136.819 151.918 135.961C151.918 135.223 152.06 134.615 152.345 134.137C152.629 133.66 153.012 133.282 153.495 133.004C153.978 132.725 154.518 132.515 155.114 132.373C155.711 132.231 156.319 132.123 156.938 132.049C157.722 131.958 158.359 131.885 158.847 131.828C159.336 131.765 159.691 131.666 159.913 131.529C160.134 131.393 160.245 131.171 160.245 130.865V130.805C160.245 130.061 160.035 129.484 159.614 129.075C159.2 128.666 158.58 128.461 157.756 128.461C156.899 128.461 156.222 128.652 155.728 129.032C155.239 129.407 154.901 129.825 154.714 130.285L152.319 129.74C152.603 128.944 153.018 128.302 153.563 127.814C154.114 127.319 154.748 126.961 155.464 126.74C156.18 126.512 156.933 126.399 157.722 126.399C158.245 126.399 158.799 126.461 159.384 126.586C159.975 126.706 160.526 126.927 161.038 127.251C161.555 127.575 161.978 128.038 162.308 128.64C162.637 129.237 162.802 130.012 162.802 130.967V139.66H160.313V137.87H160.211C160.046 138.2 159.799 138.524 159.47 138.842C159.14 139.16 158.717 139.424 158.2 139.635C157.683 139.845 157.063 139.95 156.342 139.95ZM156.896 137.904C157.6 137.904 158.203 137.765 158.703 137.487C159.208 137.208 159.592 136.845 159.853 136.396C160.12 135.941 160.254 135.456 160.254 134.939V133.251C160.163 133.342 159.987 133.427 159.725 133.507C159.47 133.581 159.177 133.646 158.847 133.703C158.518 133.754 158.197 133.802 157.884 133.848C157.572 133.887 157.31 133.921 157.1 133.95C156.606 134.012 156.154 134.117 155.745 134.265C155.342 134.413 155.018 134.626 154.774 134.904C154.535 135.177 154.416 135.541 154.416 135.995C154.416 136.626 154.649 137.103 155.114 137.427C155.58 137.745 156.174 137.904 156.896 137.904Z" fill="white"/>
</g>
<g filter="url(#filter1_d_108_47)">
<path d="M66.2858 91.1001L61.3301 65.3301L83.1355 78.2151L72.2328 81.1885L66.2858 91.1001Z" fill="#1A7076"/>
<path d="M64.5572 91.4325L65.4266 95.9535L67.7953 92.0058L73.3783 82.7007L83.5986 79.9134L87.6157 78.8178L84.031 76.6996L62.2256 63.8146L58.8641 61.8282L59.6014 65.6625L64.5572 91.4325Z" stroke="white" stroke-width="3.52063" stroke-linecap="square"/>
</g>
<defs>
<filter id="filter0_d_108_47" x="80.9741" y="102.098" width="113.165" height="66.165" filterUnits="userSpaceOnUse" color-interpolation-filters="sRGB">
<feFlood flood-opacity="0" result="BackgroundImageFix"/>
<feColorMatrix in="SourceAlpha" type="matrix" values="0 0 0 0 0 0 0 0 0 0 0 0 0 0 0 0 0 0 127 0" result="hardAlpha"/>
<feOffset dy="3.52063"/>
<feGaussianBlur stdDeviation="7.04126"/>
<feColorMatrix type="matrix" values="0 0 0 0 0 0 0 0 0 0 0 0 0 0 0 0 0 0 0.16 0"/>
<feBlend mode="normal" in2="BackgroundImageFix" result="effect1_dropShadow_108_47"/>
<feBlend mode="normal" in="SourceGraphic" in2="effect1_dropShadow_108_47" result="shape"/>
</filter>
<filter id="filter1_d_108_47" x="45.8366" y="51.2851" width="56.821" height="63.6044" filterUnits="userSpaceOnUse" color-interpolation-filters="sRGB">
<feFlood flood-opacity="0" result="BackgroundImageFix"/>
<feColorMatrix in="SourceAlpha" type="matrix" values="0 0 0 0 0 0 0 0 0 0 0 0 0 0 0 0 0 0 127 0" result="hardAlpha"/>
<feOffset dy="3.52063"/>
<feGaussianBlur stdDeviation="5.28094"/>
<feColorMatrix type="matrix" values="0 0 0 0 0 0 0 0 0 0 0 0 0 0 0 0 0 0 0.35 0"/>
<feBlend mode="normal" in2="BackgroundImageFix" result="effect1_dropShadow_108_47"/>
<feBlend mode="normal" in="SourceGraphic" in2="effect1_dropShadow_108_47" result="shape"/>
</filter>
</defs>
</svg>
