<svg width="220" height="220" viewBox="0 0 220 220" fill="none" xmlns="http://www.w3.org/2000/svg">
<path fill-rule="evenodd" clip-rule="evenodd" d="M110 142.083C119.868 142.083 128.333 133.76 128.333 122.916C128.333 113.383 122.806 101.773 116.096 91.575C114.17 88.659 112.137 85.8154 110 83.05C107.864 85.8156 105.83 88.6592 103.904 91.575C97.1988 101.777 91.6667 113.378 91.6667 122.92C91.6667 133.76 100.132 142.083 110 142.083ZM104.028 75.8083C95.9383 86.0154 82.5 105.586 82.5 122.916C82.5 138.563 94.8108 151.25 110 151.25C125.189 151.25 137.5 138.563 137.5 122.916C137.5 105.591 124.062 86.02 115.972 75.8083C112.489 71.4083 110 68.75 110 68.75C110 68.75 107.507 71.4083 104.028 75.8083Z" fill="white"/>
<path fill-rule="evenodd" clip-rule="evenodd" d="M68.1085 49.8071C53.7165 59.813 43.3845 74.643 38.9845 91.6102C34.5845 108.577 36.4075 126.56 44.1232 142.298C51.8389 158.037 64.9369 170.492 81.0442 177.406C97.1515 184.32 115.203 185.236 131.927 179.988L134.668 188.733C115.854 194.634 95.5478 193.602 77.4289 185.824C59.31 178.045 44.5763 164.034 35.8969 146.329C27.2175 128.624 25.1665 108.396 30.1153 89.3088C35.0642 70.2218 46.6856 53.5386 62.8744 42.2813L68.1131 49.8071H68.1085ZM151.892 170.193C166.276 160.184 176.601 145.355 180.996 128.391C185.391 111.428 183.566 93.451 175.852 77.7164C168.138 61.9819 155.045 49.5298 138.943 42.6152C122.841 35.7006 104.795 34.7805 88.0735 40.0217L85.3327 31.2721C104.145 25.3762 124.447 26.4119 142.561 34.1917C160.676 41.9714 175.406 55.9808 184.084 73.6829C192.761 91.385 194.813 111.609 189.867 130.693C184.921 149.778 173.305 166.46 157.121 177.719L151.883 170.193H151.892Z" fill="white"/>
<path fill-rule="evenodd" clip-rule="evenodd" d="M64.1673 45.8334H32.084V36.6667H73.334V77.9167H64.1673V45.8334ZM155.834 174.167H187.917V183.333H146.667V142.083H155.834V174.167Z" fill="white"/>
</svg>
